<svg xmlns="http://www.w3.org/2000/svg" aria-hidden="true" style="position:absolute;width:0;height:0;overflow:hidden">
  <defs>
    <symbol id="box" viewBox="0 0 28 32">
      <path d="M3.169 3.656 0 10h13V2H5.856a3.016 3.016 0 0 0-2.688 1.656zM15 10h13l-3.169-6.344A3.013 3.013 0 0 0 22.143 2h-7.144v8zm13 2H0v14c0 2.206 1.794 4 4 4h20c2.206 0 4-1.794 4-4V12z"/>
    </symbol>
    <symbol id="cart-shopping" viewBox="0 0 36 32">
      <path d="M0 1.5C0 .669.669 0 1.5 0h2.844c1.375 0 2.594.8 3.162 2h25.688a2.499 2.499 0 0 1 2.413 3.15l-2.563 9.519A4.506 4.506 0 0 1 28.7 18H10.669l.338 1.781A1.506 1.506 0 0 0 12.482 21h18.019c.831 0 1.5.669 1.5 1.5s-.669 1.5-1.5 1.5H12.482a4.496 4.496 0 0 1-4.419-3.656L4.838 3.406A.498.498 0 0 0 4.344 3H1.5C.669 3 0 2.331 0 1.5zM8 29a3 3 0 1 1 6 0 3 3 0 1 1-6 0zm21-3a3 3 0 1 1 0 6 3 3 0 1 1 0-6z"/>
    </symbol>
    <symbol id="chevron-down" viewBox="0 0 32 32">
      <path d="M14.588 25.413c.781.781 2.05.781 2.831 0l12-12c.781-.781.781-2.05 0-2.831s-2.05-.781-2.831 0L16 21.17 5.412 10.589c-.781-.781-2.05-.781-2.831 0s-.781 2.05 0 2.831l12 12z"/>
    </symbol>
    <symbol id="chevron-left" viewBox="0 0 20 32">
      <path d="M.588 14.588a2.003 2.003 0 0 0 0 2.831l12 12c.781.781 2.05.781 2.831 0s.781-2.05 0-2.831L4.831 16 15.412 5.412c.781-.781.781-2.05 0-2.831s-2.05-.781-2.831 0l-12 12z"/>
    </symbol>
    <symbol id="chevron-right" viewBox="0 0 20 32">
      <path d="M19.413 14.588c.781.781.781 2.05 0 2.831l-12 12c-.781.781-2.05.781-2.831 0s-.781-2.05 0-2.831L15.17 16 4.589 5.412c-.781-.781-.781-2.05 0-2.831s2.05-.781 2.831 0l12 12z"/>
    </symbol>
    <symbol id="user" viewBox="0 0 28 32">
      <path d="M14 16a8 8 0 0 0 0-16 8 8 0 0 0 0 16zm-2.856 3C4.988 19 0 23.988 0 30.144 0 31.169.831 32 1.856 32h24.288A1.856 1.856 0 0 0 28 30.144C28 23.988 23.012 19 16.856 19h-5.713z"/>
    </symbol>
  </defs>
</svg>
