<svg xmlns="http://www.w3.org/2000/svg" aria-hidden="true" style="position:absolute;width:0;height:0;overflow:hidden">
  <defs>
    <symbol id="box" viewBox="0 0 28 32">
      <path d="M3.169 3.656 0 10h13V2H5.856a3.016 3.016 0 0 0-2.688 1.656zM15 10h13l-3.169-6.344A3.013 3.013 0 0 0 22.143 2h-7.144v8zm13 2H0v14c0 2.206 1.794 4 4 4h20c2.206 0 4-1.794 4-4V12z"/>
    </symbol>
    <symbol id="cart-shopping" viewBox="0 0 36 32">
      <path d="M0 1.5C0 .669.669 0 1.5 0h2.844c1.375 0 2.594.8 3.162 2h25.688a2.499 2.499 0 0 1 2.413 3.15l-2.563 9.519A4.506 4.506 0 0 1 28.7 18H10.669l.338 1.781A1.506 1.506 0 0 0 12.482 21h18.019c.831 0 1.5.669 1.5 1.5s-.669 1.5-1.5 1.5H12.482a4.496 4.496 0 0 1-4.419-3.656L4.838 3.406A.498.498 0 0 0 4.344 3H1.5C.669 3 0 2.331 0 1.5zM8 29a3 3 0 1 1 6 0 3 3 0 1 1-6 0zm21-3a3 3 0 1 1 0 6 3 3 0 1 1 0-6z"/>
    </symbol>
    <symbol id="chevron-down" viewBox="0 0 32 32">
      <path d="M14.588 25.413c.781.781 2.05.781 2.831 0l12-12c.781-.781.781-2.05 0-2.831s-2.05-.781-2.831 0L16 21.17 5.412 10.589c-.781-.781-2.05-.781-2.831 0s-.781 2.05 0 2.831l12 12z"/>
    </symbol>
    <symbol id="chevron-left" viewBox="0 0 20 32">
      <path d="M.588 14.588a2.003 2.003 0 0 0 0 2.831l12 12c.781.781 2.05.781 2.831 0s.781-2.05 0-2.831L4.831 16 15.412 5.412c.781-.781.781-2.05 0-2.831s-2.05-.781-2.831 0l-12 12z"/>
    </symbol>
    <symbol id="chevron-right" viewBox="0 0 20 32">
      <path d="M19.413 14.588c.781.781.781 2.05 0 2.831l-12 12c-.781.781-2.05.781-2.831 0s-.781-2.05 0-2.831L15.17 16 4.589 5.412c-.781-.781-.781-2.05 0-2.831s2.05-.781 2.831 0l12 12z"/>
    </symbol>
    <symbol id="user" viewBox="0 0 28 32">
      <path d="M14 16a8 8 0 0 0 0-16 8 8 0 0 0 0 16zm-2.856 3C4.988 19 0 23.988 0 30.144 0 31.169.831 32 1.856 32h24.288A1.856 1.856 0 0 0 28 30.144C28 23.988 23.012 19 16.856 19h-5.713z"/>
    </symbol>
    <symbol id="arrow-up" viewBox="0 0 32 32">
      <path d="M25.707 14.707a.997.997 0 0 1-1.414 0L17 7.413v19.586a1 1 0 0 1-2 0V7.413l-7.293 7.294a1 1 0 0 1-1.415-1.415l9-9a.997.997 0 0 1 1.414 0l9 9a.997.997 0 0 1 0 1.414z"/>
    </symbol>
    <symbol id="phone" viewBox="0 0 32 32">
      <path d="M10.306 1.538A2.492 2.492 0 0 0 7.343.088l-5.5 1.5A2.508 2.508 0 0 0-.001 4c0 15.462 12.537 28 28 28a2.508 2.508 0 0 0 2.413-1.844l1.5-5.5a2.493 2.493 0 0 0-1.45-2.962l-6-2.5a2.493 2.493 0 0 0-2.894.725L19.043 23A21.122 21.122 0 0 1 8.999 12.956l3.081-2.519c.856-.7 1.15-1.875.725-2.894l-2.5-6z"/>
    </symbol>
    <symbol id="clock" viewBox="0 0 32 32">
      <path d="M16 0c8.837 0 16 7.163 16 16s-7.163 16-16 16S0 24.837 0 16 7.163 0 16 0zm-1.5 7.5V16c0 .5.25.969.669 1.25l6 4c.688.462 1.619.275 2.081-.419s.275-1.619-.419-2.081L17.5 15.2V7.5c0-.831-.669-1.5-1.5-1.5s-1.5.669-1.5 1.5z"/>
    </symbol>
    <symbol id="envelope" viewBox="0 0 32 32">
      <path d="M3 4a3.001 3.001 0 0 0-1.8 5.4l13.6 10.2a2.007 2.007 0 0 0 2.4 0L30.8 9.4A3.001 3.001 0 0 0 29 4H3zm-3 7v13c0 2.206 1.794 4 4 4h24c2.206 0 4-1.794 4-4V11L18.4 21.2a3.993 3.993 0 0 1-4.8 0L0 11z"/>
    </symbol>
    <symbol id="location-dot" viewBox="0 0 24 32">
      <path d="M13.481 31.2C16.687 27.188 24 17.462 24 12c0-6.625-5.375-12-12-12S0 5.375 0 12c0 5.462 7.313 15.188 10.519 19.2a1.89 1.89 0 0 0 2.963 0zM12 8a4 4 0 0 1 0 8 4 4 0 0 1 0-8z"/>
    </symbol>
    <symbol id="trash-can" viewBox="0 0 32 32">
      <path d="M20.414 11.595a.749.749 0 0 0-.749.747v14.165a.749.749 0 1 0 1.498 0V12.342a.749.749 0 0 0-.749-.749zm-8.843 0a.749.749 0 0 0-.749.747v14.165a.749.749 0 1 0 1.498 0V12.342a.749.749 0 0 0-.749-.749z"/>
      <path d="M5.126 9.525v18.466c0 1.092.401 2.116 1.099 2.852a3.698 3.698 0 0 0 2.679 1.158h14.178a3.68 3.68 0 0 0 2.677-1.156l.002-.002c.698-.736 1.099-1.76 1.099-2.852V9.525a2.866 2.866 0 0 0 2.133-2.767 2.861 2.861 0 0 0-2.861-2.861h-3.845V2.945A2.944 2.944 0 0 0 19.343.001h-6.702a2.944 2.944 0 0 0-2.944 2.944v.016-.001.937H5.859a2.863 2.863 0 0 0-.754 5.623l.02.005zM23.083 30.5H8.903c-1.282 0-2.278-1.099-2.278-2.509V9.593h18.733v18.398c0 1.41-.996 2.509-2.278 2.509zM11.194 2.961V2.94c0-.796.646-1.442 1.442-1.442h.028-.001 6.681c.797 0 1.444.646 1.444 1.444v.018-.001.937h-9.591v-.937zM5.86 5.393h20.267a1.35 1.35 0 0 1 0 2.7H5.86a1.35 1.35 0 0 1 0-2.7z"/>
      <path d="M15.992 11.595a.749.749 0 0 0-.749.747v14.165a.749.749 0 1 0 1.498 0V12.342a.749.749 0 0 0-.749-.749z"/>
    </symbol>
    <symbol id="minus" viewBox="0 0 28 32">
      <path d="M27 16c0 1.106-.894 2-2 2H3c-1.106 0-2-.894-2-2s.894-2 2-2h22c1.106 0 2 .894 2 2z"/>
    </symbol>
    <symbol id="plus" viewBox="0 0 28 32">
      <path d="M16 5c0-1.106-.894-2-2-2s-2 .894-2 2v9H3c-1.106 0-2 .894-2 2s.894 2 2 2h9v9c0 1.106.894 2 2 2s2-.894 2-2v-9h9c1.106 0 2-.894 2-2s-.894-2-2-2h-9V5z"/>
    </symbol>
  </defs>
</svg>
